<?xml version="1.0" encoding="utf-8"?>
<!-- Generator: Adobe Illustrator 25.0.1, SVG Export Plug-In . SVG Version: 6.00 Build 0)  -->
<svg version="1.1" id="Calque_1" xmlns="http://www.w3.org/2000/svg" xmlns:xlink="http://www.w3.org/1999/xlink" x="0px" y="0px"
	 viewBox="0 0 295.2 165.2" style="enable-background:new 0 0 295.2 165.2;" xml:space="preserve">
<style type="text/css">
	.st0{fill:#C62956;}
</style>
<g>
	<path class="st0" d="M43.1,47.4h-2.9V36.6h2.9v0.8h-1.9v9.2h1.9V47.4z"/>
	<g>
		<path class="st0" d="M50.4,39l-2.5,6.2h-1.1L44.4,39h1.1l1.9,4.9l1.9-4.9H50.4z"/>
		<path class="st0" d="M57,42.1c0,0.9-0.2,1.7-0.8,2.4c-0.3,0.3-0.6,0.5-0.9,0.7c-0.4,0.2-0.8,0.2-1.1,0.2c-0.4,0-0.8-0.1-1.1-0.2
			c-0.4-0.2-0.7-0.4-1-0.7c-0.5-0.7-0.8-1.5-0.8-2.4c0-0.9,0.2-1.7,0.8-2.4c0.3-0.3,0.6-0.5,1-0.7c0.4-0.2,0.8-0.2,1.1-0.2
			c0.4,0,0.8,0.1,1.1,0.2c0.4,0.2,0.7,0.4,0.9,0.7C56.8,40.4,57,41.3,57,42.1z M55.9,42.1c0-0.6-0.1-1.3-0.5-1.8
			c-0.2-0.2-0.4-0.3-0.6-0.4c-0.2-0.1-0.5-0.1-0.7-0.1c-0.3,0-0.5,0-0.7,0.1c-0.2,0.1-0.4,0.3-0.6,0.4c-0.4,0.5-0.5,1.2-0.5,1.8
			c0,0.6,0.1,1.2,0.5,1.8c0.2,0.2,0.4,0.3,0.6,0.4c0.2,0.1,0.5,0.2,0.7,0.2c0.2,0,0.5-0.1,0.7-0.2c0.2-0.1,0.4-0.3,0.6-0.4
			C55.8,43.4,56,42.8,55.9,42.1z"/>
		<path class="st0" d="M63.8,45.2h-1v-0.7c-0.3,0.3-0.7,0.5-1,0.6c-0.3,0.1-0.7,0.2-1.1,0.2c-0.3,0-0.6,0-0.8-0.1
			c-0.3-0.1-0.5-0.3-0.7-0.5c-0.4-0.5-0.6-1.1-0.5-1.8v-4h1.1v3.5c0,0.3,0,0.5,0,0.8c0,0.2,0.1,0.4,0.2,0.6c0.1,0.2,0.2,0.3,0.4,0.4
			c0.2,0.1,0.5,0.1,0.7,0.1c0.3,0,0.6-0.1,0.9-0.2c0.3-0.1,0.6-0.3,0.9-0.5v-4.6h1V45.2z"/>
		<path class="st0" d="M70.3,43.5c0,0.3-0.1,0.5-0.2,0.8c-0.1,0.2-0.3,0.5-0.5,0.6c-0.6,0.4-1.2,0.6-1.9,0.5c-0.4,0-0.9-0.1-1.3-0.2
			c-0.3-0.1-0.7-0.2-1-0.4v-1.2h0.1c0.3,0.2,0.7,0.4,1.1,0.6c0.4,0.1,0.8,0.2,1.2,0.2c0.4,0,0.7-0.1,1.1-0.2
			c0.1-0.1,0.2-0.2,0.3-0.3c0.1-0.1,0.1-0.3,0.1-0.4c0-0.1,0-0.2,0-0.3c0-0.1-0.1-0.2-0.2-0.3c-0.2-0.2-0.5-0.3-0.8-0.3
			c-0.1,0-0.3-0.1-0.6-0.1l-0.7-0.1c-0.4-0.1-0.8-0.3-1.2-0.6c-0.2-0.3-0.4-0.7-0.3-1c0-0.2,0.1-0.5,0.2-0.7
			c0.1-0.2,0.3-0.4,0.5-0.6c0.2-0.2,0.5-0.3,0.8-0.4c0.3-0.1,0.7-0.2,1.1-0.2c0.4,0,0.8,0,1.2,0.1c0.3,0.1,0.6,0.2,1,0.3v1.1H70
			c-0.3-0.2-0.6-0.4-1-0.5c-0.4-0.1-0.7-0.2-1.1-0.2c-0.3,0-0.7,0.1-1,0.2c-0.1,0.1-0.2,0.2-0.3,0.3s-0.1,0.2-0.1,0.4
			c0,0.1,0,0.2,0.1,0.3c0,0.1,0.1,0.2,0.2,0.3c0.2,0.2,0.5,0.3,0.8,0.3c0.2,0,0.4,0.1,0.6,0.1l0.6,0.1c0.4,0.1,0.8,0.3,1.1,0.6
			c0.1,0.1,0.2,0.3,0.3,0.5C70.3,43.1,70.3,43.3,70.3,43.5z"/>
		<path class="st0" d="M81,42.2h-4.6c0,0.3,0.1,0.7,0.2,1c0.1,0.3,0.3,0.5,0.5,0.7c0.2,0.2,0.4,0.3,0.7,0.4c0.3,0.1,0.6,0.1,0.9,0.1
			c0.4,0,0.9-0.1,1.3-0.3c0.3-0.1,0.6-0.3,0.9-0.5h0.1v1.1c-0.4,0.1-0.7,0.3-1.1,0.4c-0.4,0.1-0.8,0.2-1.2,0.2c-0.4,0-0.9,0-1.3-0.2
			c-0.4-0.1-0.8-0.4-1.1-0.7c-0.3-0.3-0.5-0.7-0.7-1.1c-0.1-0.4-0.2-0.8-0.2-1.3c-0.1-0.9,0.2-1.7,0.8-2.4c0.3-0.3,0.6-0.5,1-0.7
			c0.4-0.2,0.8-0.2,1.2-0.2c0.4,0,0.7,0,1.1,0.2c0.3,0.1,0.6,0.3,0.9,0.6c0.5,0.6,0.7,1.3,0.7,2.1V42.2z M80,41.5
			c0-0.5-0.1-0.9-0.4-1.3c-0.2-0.2-0.4-0.3-0.6-0.4c-0.2-0.1-0.4-0.1-0.7-0.1c-0.2,0-0.5,0-0.7,0.1c-0.2,0.1-0.4,0.2-0.6,0.4
			c-0.3,0.3-0.5,0.8-0.6,1.2H80z M80.2,38.1h-0.9l-1-1.5l-1,1.4h-0.9l1.3-2.1H79L80.2,38.1z"/>
		<path class="st0" d="M85.8,45.2c-0.2,0.1-0.4,0.1-0.6,0.1c-0.2,0-0.4,0-0.6,0c-0.3,0-0.5,0-0.8-0.1s-0.5-0.2-0.7-0.4
			c-0.4-0.5-0.5-1-0.5-1.6v-3.3h-0.7V39h0.7v-1.8h1V39h2.2v0.9h-2.2v2.8c0,0.3,0,0.6,0,0.8c0,0.2,0.1,0.4,0.2,0.5
			c0.1,0.1,0.2,0.3,0.3,0.3c0.2,0.1,0.4,0.1,0.7,0.1c0.2,0,0.4,0,0.5-0.1c0.1,0,0.3-0.1,0.4-0.1h0.1L85.8,45.2z"/>
		<path class="st0" d="M92.3,42.2h-4.6c0,0.3,0,0.7,0.2,1c0.1,0.3,0.3,0.5,0.5,0.7c0.2,0.2,0.4,0.3,0.7,0.4c0.3,0.1,0.6,0.1,0.9,0.1
			c0.4,0,0.9-0.1,1.3-0.3c0.3-0.1,0.6-0.3,0.9-0.5h0.1v1.1c-0.4,0.1-0.7,0.3-1.1,0.4c-0.4,0.1-0.8,0.2-1.2,0.2
			c-0.9,0.1-1.8-0.2-2.4-0.8c-0.3-0.3-0.5-0.7-0.7-1.1c-0.1-0.4-0.2-0.8-0.2-1.3c0-0.9,0.3-1.7,0.9-2.4c0.3-0.3,0.6-0.5,1-0.7
			c0.4-0.2,0.8-0.2,1.2-0.2c0.4,0,0.7,0,1.1,0.2c0.3,0.1,0.6,0.3,0.9,0.6c0.5,0.6,0.7,1.3,0.7,2.1V42.2z M91.3,41.5
			c0-0.5-0.1-0.9-0.4-1.3c-0.2-0.2-0.4-0.3-0.6-0.4c-0.2-0.1-0.4-0.1-0.7-0.1c-0.2,0-0.5,0-0.7,0.1c-0.2,0.1-0.4,0.2-0.6,0.4
			c-0.3,0.3-0.5,0.8-0.6,1.2H91.3z"/>
		<path class="st0" d="M98.3,43.5c0,0.3-0.1,0.5-0.2,0.8c-0.1,0.2-0.3,0.5-0.5,0.6c-0.6,0.4-1.2,0.6-1.9,0.5c-0.4,0-0.9-0.1-1.3-0.2
			c-0.3-0.1-0.7-0.2-1-0.4v-1.2h0.1c0.3,0.3,0.7,0.4,1.1,0.6c0.4,0.1,0.8,0.2,1.2,0.2c0.4,0,0.7-0.1,1.1-0.2
			c0.1-0.1,0.2-0.2,0.3-0.3c0.1-0.1,0.1-0.3,0.1-0.4c0-0.1,0-0.2,0-0.3c0-0.1-0.1-0.2-0.2-0.3c-0.2-0.2-0.5-0.3-0.8-0.3
			c-0.1,0-0.3-0.1-0.6-0.1L95,42.4c-0.4-0.1-0.8-0.3-1.2-0.6c-0.2-0.3-0.3-0.7-0.3-1c0-0.2,0.1-0.5,0.2-0.7c0.1-0.2,0.3-0.4,0.5-0.6
			c0.2-0.2,0.5-0.3,0.8-0.4c0.3-0.1,0.7-0.2,1.1-0.2c0.4,0,0.8,0,1.2,0.1c0.3,0.1,0.6,0.2,1,0.3v1.1H98c-0.3-0.2-0.6-0.4-1-0.5
			c-0.4-0.1-0.8-0.2-1.1-0.2c-0.3,0-0.7,0.1-1,0.2c-0.1,0.1-0.2,0.2-0.3,0.3c-0.1,0.1-0.1,0.2-0.1,0.4c0,0.1,0,0.2,0,0.3
			c0,0.1,0.1,0.2,0.2,0.3c0.2,0.2,0.5,0.3,0.8,0.3c0.2,0,0.4,0.1,0.7,0.1l0.6,0.1c0.4,0.1,0.8,0.3,1.1,0.6
			C98.2,42.7,98.3,43,98.3,43.5z"/>
	</g>
	<path class="st0" d="M102.6,47.4h-2.9v-0.8h1.9v-9.2h-1.9v-0.8h2.9V47.4z"/>
</g>
<g>
	<path class="st0" d="M79.9,81.3c-0.2-0.1-0.5-0.1-0.8,0.2c-2.9,4.2-7,7.4-11.8,9.4c-4.4,1.8-9.6,1.7-7.9-4
		c1.5-4.9,7.3-10.5,11.3-12.3c0.9-0.5,3.4-1.5,3.5,0.4c0.1,1.5-1.9,3.5-3.1,4.4c-2.5,2-6.3,4.2-8.5,4.4c-1,0.1-0.5,1,0.5,0.9
		c3-0.3,9.5-2.8,11.9-6.4c1.3-1.9,1.7-5.3-1.1-6.3c-4.3-1.4-12.3,4.6-16,9.3c-0.1,0-0.2,0.1-0.2,0.2c-2.3,3.3-7.3,7.8-9.9,9.2
		c-3.9,2.2-4.9-1.4-4.5-4.7c0.2-1.1,0.5-2.1,0.9-3.1c8.5-7,16.5-14.9,22-24.6c2.4-4.4,0.2-6.8-2.8-6.8c-4.6,0-7.7,4.1-10.2,7.4
		c-4.4,5.8-12.6,21.9-13,28.7c-0.1,3.1,1.1,5.4,5.2,5.4c1.5,0,3-0.6,4.2-1.5c2-1.5,4.4-3.7,6.2-5.7c-1.7,7,6.1,9.1,12.5,6.6
		c4.9-2.1,9-5.6,11.7-10.2C80.3,81.8,80.3,81.5,79.9,81.3z M47.1,75.4c1.6-3,3.3-6.5,4.1-7.8c2.9-5.2,6.4-10.1,10.5-13.2
		c3-2.2,4.5-0.7,2.7,2.6c-3.6,6.9-12.5,18.6-19.2,23.1C45.8,78.6,46.4,77,47.1,75.4z"/>
	<path class="st0" d="M210.5,59.8c1.5-3.1,1.8-5.9-0.9-7.4l-1.3-0.5c-4.6-1.3-8.4,3.1-10.7,6.6c-3,4.7-6.9,13.7-8.3,17.5l-2,5h-0.2
		c-0.5,0-0.9-1.1-1.9-1.1c-1,0-4.1,0.7-4.1,1.9c0.1,0.4,0.2,0.7,0.5,1c-2.8,3.5-6.5,6.3-10.8,8c-4.4,1.8-9.6,1.7-7.9-4
		c1.5-4.9,7.3-10.5,11.3-12.4c0.9-0.5,3.4-1.5,3.5,0.4c0.1,1.5-1.9,3.5-3.1,4.4c-2.5,2-6.3,4.2-8.5,4.4c-1,0.1-0.5,1,0.5,0.9
		c3.1-0.3,9.5-2.8,11.9-6.4c1.3-1.9,1.7-5.3-1.1-6.3c-4.3-1.4-12.3,4.6-16,9.3c-0.1,0-0.2,0.1-0.3,0.2c-2.8,3.7-6.2,6.8-10.1,9.4
		c-2.2,1.1-3.6-0.4-3.1-3.3c0.4-2.3,1.1-4.6,2.2-6.7c1-1.9,3.3-4.9,3.1-7.2c-0.1-2.1-2.7-2-5.8,0.4c-3.7,2.9-9.6,9.3-12.5,12.8
		c1.1-3.5,2.4-7,3.9-10.4c6.4-5.1,15.6-11.9,19.2-18.2c1.6-2.8,1.9-5.8-2-6.6c-8.9-1.9-17.9,18.3-19,20.8c-0.3,0.6-0.6,1.2-1,1.7
		l-0.4-0.1c-1.4-0.7-2.2,1.1-0.9,1.8c-1.1,1.6-2.6,3.3-4.1,5.2c0,0-0.1,0.1-0.1,0.1c-0.2,0.3-0.4,0.5-0.6,0.8
		c-0.2,0.2-0.3,0.4-0.5,0.6c0,0,0,0.1,0,0.1c-6.5,7.8-17.3,11.4-24.9,11.1c-7.2-0.1-11.6-4.1-8.7-13c4.9-15.5,22.3-28.1,29.5-27
		c3.7,0.6,3.5,4.4,1.8,7.5c-3.3,6.3-9.9,10.1-16.9,10.7c-1.8,0.1-2.5,2.3-0.3,2.1c6.8-0.6,20.7-8.5,20.9-16.3
		c0.1-2.7-1.7-5.1-5.4-5.6c-13.3-2-29.4,13.4-32.8,27.4c-2.6,10.9,3.7,15.8,12,15.9c5.3,0,10.4-1.3,15.1-3.7
		c3.7-1.9,6.9-4.4,9.7-7.4c0.1,0,0.1-0.1,0.2-0.2c1.8-2,4.6-5.2,5.5-6.4c-1.9,5-5,13.9-5.4,14.9c-0.7,1.3,2.9-0.3,3.6-0.7
		c1.3-0.7,7-9.7,10.8-13.2c4.9-4.3,5.3-2.7,4.1-0.5c-1.4,2.5-3.3,6-3.6,8.8c-0.2,1.1-0.2,2.2,0.1,3.2c1.4,4,6.4,2.4,8.6,0.8
		c2-1.4,4.2-3.6,6-5.6c-1.7,7,6.1,9.2,12.5,6.6c4.4-1.9,8.2-5,10.9-8.9c0.1,0,0.2,0,0.3,0c1.2,0,2.3-0.1,3.5-0.3
		c-4.2,10.7-11.8,29.6-12.5,31.1c-1,2,3,0.4,4.1-0.2c1-0.6,1.2-1.7,2.8-5.9c0.7-1.8-0.5-1.1,1.5-6.8c2-5.4,5.1-13.8,7-18.6
		c4.2-0.6,9-1.3,10.2-1.6c2.8-0.8,1.1-1.1,0-1.1c-2.4,0-4.9,0.3-7.2,0.5C199,75.1,208,65.2,210.5,59.8z M153.8,54.4
		c3.4-2.6,4.4-0.6,2.7,2.6c-3,5.7-10.8,12.8-16.2,16.3C143.8,65.6,147.7,59,153.8,54.4z M190.1,80.7c0.1-0.4,0.3-0.7,0.5-1.1
		c0.2-0.6,2.6-6.2,5.6-11.8c2.6-4.7,7-11.1,9.7-13.1c4.1-3.2,4.7,0.7,2.7,4.2C205,65.2,196.9,75.7,190.1,80.7z"/>
</g>
</svg>
