<svg id="Calque_1" data-name="Calque 1" xmlns="http://www.w3.org/2000/svg" viewBox="0 0 2267.72 1700.79"><defs><style>.cls-1{fill:#fff;}.cls-2{fill:#1d1d1c;}</style></defs><path class="cls-1" d="M561.2,802.67c-14.76,2.23-29.53,3.34-44.29,4.17S487.38,808,472.61,808s-29.52-.36-44.29-1.14-29.53-2-44.29-4.19c14.76-2.24,29.53-3.36,44.29-4.19s29.53-1.15,44.29-1.14,29.53.37,44.3,1.15S546.44,800.44,561.2,802.67Z"/><path class="cls-1" d="M1974.7,803.85c-14.77,2.23-29.53,3.34-44.3,4.18s-29.52,1.14-44.29,1.15-29.53-.36-44.29-1.14-29.53-1.95-44.29-4.19c14.76-2.24,29.53-3.35,44.29-4.19s29.53-1.14,44.29-1.13,29.53.37,44.29,1.15S1959.93,801.63,1974.7,803.85Z"/><path class="cls-2" d="M717.71,824.69h5.2v49H600.61v-5.15h13v-134h-13v-5.16h67.65v5.16H652.65v134h26a70.06,70.06,0,0,0,14.71-1.29,36.44,36.44,0,0,0,12.1-5.41Q717.71,853.82,717.71,824.69Z"/><path class="cls-2" d="M755.17,727.78l-9.62,1.55a18.19,18.19,0,0,1-12.1-4.51q-5.34-4.5-5.34-13.14a20.18,20.18,0,0,1,5.73-14.57q5.71-5.93,16-5.92a21.27,21.27,0,0,1,16.91,7.73q6.64,7.73,6.64,20t-9.5,24.36q-9.5,12.12-27.19,20.1L734.88,759q24.45-13.4,24.46-27.06Q759.34,727.79,755.17,727.78Z"/><path class="cls-2" d="M941.75,868.51v5.15H873.31v-5.15h15.35l-17.43-35.83H818.67l-15.1,35.83h20.56v5.15h-44.5v-5.15h17.44l59.59-141.76h6.5l66.1,141.76ZM821,827.27h47.62l-25.5-52.58Z"/><path class="cls-2" d="M1082,773.15q0-22.95-7.68-30.8t-28.75-7.86h-7.81v134H1056v5.15H980.52v-5.15h18.21v-134h-7.81q-20.82,0-28.49,7.86t-7.67,30.8h-5.21V729.33H1087.2v43.82Z"/><path class="cls-2" d="M1180.88,868.51q39,0,39-43.82h5.2v49h-122.3v-5.15h13v-134h-13v-5.16h119.7v43.82h-5.2q0-22.95-9.24-30.8t-29.79-7.86h-23.42v61.85h10.41q18.74,0,23.68-4.64t4.94-18.55h5.2v51.54h-5.2q0-14.43-4.94-18.81t-23.68-4.38h-10.41v67Z"/><path class="cls-2" d="M1361.73,824.69h5.2v49h-122.3v-5.15h13v-134h-13v-5.16h67.66v5.16h-15.62v134h26a70.06,70.06,0,0,0,14.71-1.29,36.44,36.44,0,0,0,12.1-5.41Q1361.73,853.82,1361.73,824.69Z"/><path class="cls-2" d="M1445,873.66h-65v-5.15h13v-134h-13v-5.16h65v5.16h-13v134h13Z"/><path class="cls-2" d="M1543.87,868.51q39,0,39-43.82h5.21v49h-122.3v-5.15h13v-134h-13v-5.16h119.7v43.82h-5.21q0-22.95-9.24-30.8t-29.79-7.86h-23.42v61.85h10.41q18.73,0,23.68-4.64t4.94-18.55h5.21v51.54h-5.21q0-14.43-4.94-18.81t-23.68-4.38h-10.41v67Z"/><path class="cls-2" d="M1759.33,876.24h-11.45q-32.54,0-45.28-13.92-10.14-10.82-13.79-28.61-1.56-7.47-3.38-13.66-4.17-13.9-16.92-13.91h-11.45v62.37h13v5.15h-65v-5.15h13v-134h-13v-5.16h68.44q66.35,0,66.35,38.4,0,15.21-11.19,24.75T1700,802v1.81q26,0,36.17,34,5.2,18,10.54,25.64t12.62,7.6ZM1657.06,734.49V801q26,0,34.87-7.47t8.85-25q0-17.53-9.11-25.78T1657.06,734.49Z"/><path class="cls-2" d="M469.8,1147.86H383.86v-6.8h17.19V964H383.86v-6.81H469.8q25.44,0,45.89,8.34t33.18,22q25.78,28.28,25.78,64,0,48.35-25.78,72.35T469.8,1147.86Zm-17.19-6.8q37.13,0,53.63-19.92t16.5-65q0-45.1-17.88-68.61T452.61,964Z"/><path class="cls-2" d="M768.88,1064.78q0,88.2-75,88.19-41.59,0-65-21.11t-23.37-63.67V964H588.4v-6.81h89.38V964H660.59v107.94q0,71.16,48.13,71.16,19.59,0,35.58-19.24t16-52.27V964H733.12v-6.81h53V964H768.88Z"/><path class="cls-2" d="M963.1,1147.86H877.16v-6.8h17.19V964H877.16v-6.81H963.1q25.44,0,45.9,8.34t33.17,22q25.78,28.28,25.78,64,0,48.35-25.78,72.35T963.1,1147.86Zm-17.18-6.8q37.13,0,53.62-19.92t16.51-65q0-45.1-17.88-68.61T945.92,964Z"/><path class="cls-2" d="M1191.71,1141.06q51.55,0,51.56-57.89h6.88v64.69H1088.58v-6.8h17.19V964h-17.19v-6.81h158.13v57.88h-6.87q0-30.3-12.21-40.69T1188.27,964h-30.94v81.72h13.75q24.75,0,31.28-6.13t6.54-24.52h6.87v68.1h-6.87q0-19.07-6.54-24.86t-31.28-5.78h-13.75v88.53Z"/><path class="cls-2" d="M1289.68,1147.86h-6.87v-79.33h6.87q0,32,23.21,54.48t56.55,22.47q13.74,0,22.17-8t8.42-21.28q0-15-19.59-25.54-10.67-5.45-36.79-17.19t-36.78-19.92q-21.31-16.35-18.74-43.24t20.46-41.72q17.87-14.8,40.39-14.81t40.57,6q18,6,20.45,6,6.87,0,6.88-11.92h6.87v62.31h-6.87q0-24.51-18.22-40t-46.76-15.5q-12.72,0-19.94,7.32t-7.21,16.18q0,8.85,2.4,13.62t8.43,8.68q6,3.92,10.48,6.3t14.27,6.47q9.8,4.08,13.57,5.79l22.35,10q3.43,1.53,10,4.94a57,57,0,0,1,9.8,6.13c2.17,1.82,5,4.08,8.42,6.81a29.36,29.36,0,0,1,7.56,8.34q2.4,4.26,4.81,9.7,4.82,10.9,3.44,25.54-2.74,27.58-20.8,42T1370.81,1153q-27.51,0-54.66-14-9.29-4.76-13.75-4.76Q1289.68,1134.25,1289.68,1147.86Z"/><path class="cls-2" d="M1553.7,1147.86h-86v-6.8h17.19V964h-17.19v-6.81h86V964h-17.19v177.06h17.19Z"/><path class="cls-2" d="M1742.42,1134.76a14.4,14.4,0,0,0-11.51-5.28q-7,0-14.44,5.79a177.7,177.7,0,0,1-17.19,11.74q-9.79,6-23.55,6-46.76,0-72.36-23.83t-25.61-73.21q0-103.17,97.28-103.17,17.54,0,35.93,8.51t22.51,8.52q4.13,0,6.88-4.26a15.39,15.39,0,0,0,2.75-8.34h6.53v69.12h-6.87q0-25.87-20.46-46.31T1675,959.57q-20.62,0-31.28,22t-10.66,72.53q0,50.57,10.83,71.33t31.8,20.77q33,0,33-58.22v-25.2h-21.66v-6.81h82.51v6.81h-16.16v85.12h-6.53A19.58,19.58,0,0,0,1742.42,1134.76Z"/><path class="cls-2" d="M1810.83,1141.06h27.5v6.8h-55v-6.8H1804V979q-11-15-20.62-15v-6.81h64.28l96.6,113.38V964h-27.5v-6.81h58.44V964h-24.06v187.27h-6.88L1810.83,987.49Z"/><path class="cls-1" d="M717.71,824.69h5.2v49H600.61v-5.15h13v-134h-13v-5.16h67.65v5.16H652.65v134h26a70.06,70.06,0,0,0,14.71-1.29,36.44,36.44,0,0,0,12.1-5.41Q717.71,853.82,717.71,824.69Z"/><path class="cls-1" d="M755.17,727.78l-9.62,1.55a18.19,18.19,0,0,1-12.1-4.51q-5.34-4.5-5.34-13.14a20.18,20.18,0,0,1,5.73-14.57q5.71-5.93,16-5.92a21.27,21.27,0,0,1,16.91,7.73q6.64,7.73,6.64,20t-9.5,24.36q-9.5,12.12-27.19,20.1L734.88,759q24.45-13.4,24.46-27.06Q759.34,727.79,755.17,727.78Z"/><path class="cls-1" d="M941.75,868.51v5.15H873.31v-5.15h15.35l-17.43-35.83H818.67l-15.1,35.83h20.56v5.15h-44.5v-5.15h17.44l59.59-141.76h6.5l66.1,141.76ZM821,827.27h47.62l-25.5-52.58Z"/><path class="cls-1" d="M1082,773.15q0-22.95-7.68-30.8t-28.75-7.86h-7.81v134H1056v5.15H980.52v-5.15h18.21v-134h-7.81q-20.82,0-28.49,7.86t-7.67,30.8h-5.21V729.33H1087.2v43.82Z"/><path class="cls-1" d="M1180.88,868.51q39,0,39-43.82h5.2v49h-122.3v-5.15h13v-134h-13v-5.16h119.7v43.82h-5.2q0-22.95-9.24-30.8t-29.79-7.86h-23.42v61.85h10.41q18.74,0,23.68-4.64t4.94-18.55h5.2v51.54h-5.2q0-14.43-4.94-18.81t-23.68-4.38h-10.41v67Z"/><path class="cls-1" d="M1361.73,824.69h5.2v49h-122.3v-5.15h13v-134h-13v-5.16h67.66v5.16h-15.62v134h26a70.06,70.06,0,0,0,14.71-1.29,36.44,36.44,0,0,0,12.1-5.41Q1361.73,853.82,1361.73,824.69Z"/><path class="cls-1" d="M1445,873.66h-65v-5.15h13v-134h-13v-5.16h65v5.16h-13v134h13Z"/><path class="cls-1" d="M1543.87,868.51q39,0,39-43.82h5.21v49h-122.3v-5.15h13v-134h-13v-5.16h119.7v43.82h-5.21q0-22.95-9.24-30.8t-29.79-7.86h-23.42v61.85h10.41q18.73,0,23.68-4.64t4.94-18.55h5.21v51.54h-5.21q0-14.43-4.94-18.81t-23.68-4.38h-10.41v67Z"/><path class="cls-1" d="M1759.33,876.24h-11.45q-32.54,0-45.28-13.92-10.14-10.82-13.79-28.61-1.56-7.47-3.38-13.66-4.17-13.9-16.92-13.91h-11.45v62.37h13v5.15h-65v-5.15h13v-134h-13v-5.16h68.44q66.35,0,66.35,38.4,0,15.21-11.19,24.75T1700,802v1.81q26,0,36.17,34,5.2,18,10.54,25.64t12.62,7.6ZM1657.06,734.49V801q26,0,34.87-7.47t8.85-25q0-17.53-9.11-25.78T1657.06,734.49Z"/><path class="cls-1" d="M469.8,1147.86H383.86v-6.8h17.19V964H383.86v-6.81H469.8q25.44,0,45.89,8.34t33.18,22q25.78,28.28,25.78,64,0,48.35-25.78,72.35T469.8,1147.86Zm-17.19-6.8q37.13,0,53.63-19.92t16.5-65q0-45.1-17.88-68.61T452.61,964Z"/><path class="cls-1" d="M768.88,1064.78q0,88.2-75,88.19-41.59,0-65-21.11t-23.37-63.67V964H588.4v-6.81h89.38V964H660.59v107.94q0,71.16,48.13,71.16,19.59,0,35.58-19.24t16-52.27V964H733.12v-6.81h53V964H768.88Z"/><path class="cls-1" d="M963.1,1147.86H877.16v-6.8h17.19V964H877.16v-6.81H963.1q25.44,0,45.9,8.34t33.17,22q25.78,28.28,25.78,64,0,48.35-25.78,72.35T963.1,1147.86Zm-17.18-6.8q37.13,0,53.62-19.92t16.51-65q0-45.1-17.88-68.61T945.92,964Z"/><path class="cls-1" d="M1191.71,1141.06q51.55,0,51.56-57.89h6.88v64.69H1088.58v-6.8h17.19V964h-17.19v-6.81h158.13v57.88h-6.87q0-30.3-12.21-40.69T1188.27,964h-30.94v81.72h13.75q24.75,0,31.28-6.13t6.54-24.52h6.87v68.1h-6.87q0-19.07-6.54-24.86t-31.28-5.78h-13.75v88.53Z"/><path class="cls-1" d="M1289.68,1147.86h-6.87v-79.33h6.87q0,32,23.21,54.48t56.55,22.47q13.74,0,22.17-8t8.42-21.28q0-15-19.59-25.54-10.67-5.45-36.79-17.19t-36.78-19.92q-21.31-16.35-18.74-43.24t20.46-41.72q17.87-14.8,40.39-14.81t40.57,6q18,6,20.45,6,6.87,0,6.88-11.92h6.87v62.31h-6.87q0-24.51-18.22-40t-46.76-15.5q-12.72,0-19.94,7.32t-7.21,16.18q0,8.85,2.4,13.62t8.43,8.68q6,3.92,10.48,6.3t14.27,6.47q9.8,4.08,13.57,5.79l22.35,10q3.43,1.53,10,4.94a57,57,0,0,1,9.8,6.13c2.17,1.82,5,4.08,8.42,6.81a29.36,29.36,0,0,1,7.56,8.34q2.4,4.26,4.81,9.7,4.82,10.9,3.44,25.54-2.74,27.58-20.8,42T1370.81,1153q-27.51,0-54.66-14-9.29-4.76-13.75-4.76Q1289.68,1134.25,1289.68,1147.86Z"/><path class="cls-1" d="M1553.7,1147.86h-86v-6.8h17.19V964h-17.19v-6.81h86V964h-17.19v177.06h17.19Z"/><path class="cls-1" d="M1742.42,1134.76a14.4,14.4,0,0,0-11.51-5.28q-7,0-14.44,5.79a177.7,177.7,0,0,1-17.19,11.74q-9.79,6-23.55,6-46.76,0-72.36-23.83t-25.61-73.21q0-103.17,97.28-103.17,17.54,0,35.93,8.51t22.51,8.52q4.13,0,6.88-4.26a15.39,15.39,0,0,0,2.75-8.34h6.53v69.12h-6.87q0-25.87-20.46-46.31T1675,959.57q-20.62,0-31.28,22t-10.66,72.53q0,50.57,10.83,71.33t31.8,20.77q33,0,33-58.22v-25.2h-21.66v-6.81h82.51v6.81h-16.16v85.12h-6.53A19.58,19.58,0,0,0,1742.42,1134.76Z"/><path class="cls-1" d="M1810.83,1141.06h27.5v6.8h-55v-6.8H1804V979q-11-15-20.62-15v-6.81h64.28l96.6,113.38V964h-27.5v-6.81h58.44V964h-24.06v187.27h-6.88L1810.83,987.49Z"/></svg>