<svg id="logo-terre-lune" xmlns="http://www.w3.org/2000/svg" width="120" height="20.003" viewBox="0 0 120 20.003">
  <path id="Tracé_1" data-name="Tracé 1" d="M100,103.525V100h14.051v3.525h-5.058v16.128h-3.878V103.525Z" transform="translate(-100 -100)" fill="#fff"/>
  <path id="Tracé_2" data-name="Tracé 2" d="M158.652,130.549a2.75,2.75,0,0,0,1.9.591q2.613,0,4.666-.172l.789-.087.055,2.857a24.317,24.317,0,0,1-5.847.809q-3.174,0-4.609-1.732t-1.432-5.625q0-7.759,6.211-7.761,6.127,0,6.126,6.52l-.282,2.683h-8.262A2.543,2.543,0,0,0,158.652,130.549Zm4.147-4.861a4.016,4.016,0,0,0-.534-2.408,2.889,2.889,0,0,0-3.753.027,4.076,4.076,0,0,0-.576,2.381Z" transform="translate(-140.653 -114.544)" fill="#fff"/>
  <path id="Tracé_3" data-name="Tracé 3" d="M214.43,134.2V119.774h3.738v1.53a14.073,14.073,0,0,1,4.5-1.874v3.9q-2.276.49-3.905,1.011l-.561.2V134.2H214.43Z" transform="translate(-185.819 -114.544)" fill="#fff"/>
  <path id="Tracé_4" data-name="Tracé 4" d="M256.32,134.2V119.774h3.738v1.53a14.073,14.073,0,0,1,4.5-1.874v3.9q-2.276.49-3.905,1.011l-.561.2V134.2H256.32Z" transform="translate(-217.235 -114.544)" fill="#fff"/>
  <path id="Tracé_5" data-name="Tracé 5" d="M299.882,130.549a2.75,2.75,0,0,0,1.9.591q2.613,0,4.666-.172l.789-.087.055,2.857a24.317,24.317,0,0,1-5.847.809q-3.174,0-4.609-1.732t-1.432-5.625q0-7.759,6.211-7.761,6.127,0,6.126,6.52l-.282,2.683h-8.262A2.542,2.542,0,0,0,299.882,130.549Zm4.147-4.861a4.016,4.016,0,0,0-.534-2.408,2.889,2.889,0,0,0-3.753.027,4.076,4.076,0,0,0-.576,2.381Z" transform="translate(-246.54 -114.544)" fill="#fff"/>
  <path id="Tracé_6" data-name="Tracé 6" d="M367.877,119.653H357V100h3.878v16.128h7v3.525Z" transform="translate(-292.738 -100)" fill="#fff"/>
  <path id="Tracé_7" data-name="Tracé 7" d="M416.682,120.795h3.766v14.423h-3.738v-.808a7.381,7.381,0,0,1-3.513,1.153q-2.923,0-3.935-1.659t-1.011-5.555V120.79h3.765v7.616a8.412,8.412,0,0,0,.337,2.915q.337.779,1.629.779a6.7,6.7,0,0,0,2.333-.4l.364-.115V120.795Z" transform="translate(-331.171 -115.565)" fill="#fff"/>
  <path id="Tracé_8" data-name="Tracé 8" d="M474.866,134.2H471.1V119.774h3.738v.809a6.92,6.92,0,0,1,3.513-1.153q2.811,0,3.878,1.7a10.115,10.115,0,0,1,1.068,5.25V134.2h-3.765v-7.7a6.62,6.62,0,0,0-.422-2.725,1.684,1.684,0,0,0-1.687-.881,6.229,6.229,0,0,0-2.221.4l-.337.115V134.2Z" transform="translate(-378.274 -114.544)" fill="#fff"/>
  <path id="Tracé_9" data-name="Tracé 9" d="M535.042,130.549a2.75,2.75,0,0,0,1.9.591q2.613,0,4.666-.172l.789-.087.055,2.857a24.317,24.317,0,0,1-5.847.809q-3.174,0-4.609-1.732t-1.432-5.625q0-7.759,6.211-7.761,6.127,0,6.126,6.52l-.282,2.683h-8.262A2.543,2.543,0,0,0,535.042,130.549Zm4.145-4.861a4.016,4.016,0,0,0-.534-2.408,2.889,2.889,0,0,0-3.753.027,4.076,4.076,0,0,0-.576,2.381Z" transform="translate(-422.897 -114.544)" fill="#fff"/>
</svg>
